<mxfile host="app.diagrams.net" modified="2021-06-14T17:22:21.817Z" agent="5.0 (Windows NT 10.0; Win64; x64) AppleWebKit/537.36 (KHTML, like Gecko) Chrome/91.0.4472.101 Safari/537.36" etag="RqkEwm_j6xKhN3ySUWQg" version="14.7.6" type="github">
  <diagram id="VBPHkYSubdlRp1jTWTDs" name="Page-1">
    <mxGraphModel dx="1303" dy="727" grid="1" gridSize="10" guides="1" tooltips="1" connect="1" arrows="1" fold="1" page="1" pageScale="1" pageWidth="850" pageHeight="1100" math="0" shadow="0">
      <root>
        <mxCell id="0" />
        <mxCell id="1" parent="0" />
        <mxCell id="gzmTF04NYM72tHjsYCHT-49" value="" style="group" vertex="1" connectable="0" parent="1">
          <mxGeometry y="60" width="850.0033333333333" height="810" as="geometry" />
        </mxCell>
        <mxCell id="gzmTF04NYM72tHjsYCHT-2" value="" style="rounded=0;whiteSpace=wrap;html=1;fillColor=#f8cecc;strokeColor=#b85450;" vertex="1" parent="gzmTF04NYM72tHjsYCHT-49">
          <mxGeometry x="509.99999999999994" y="462.85714285714295" width="340" height="347.14285714285717" as="geometry" />
        </mxCell>
        <mxCell id="gzmTF04NYM72tHjsYCHT-4" value="" style="rounded=0;whiteSpace=wrap;html=1;fontSize=2;labelBorderColor=none;fillColor=#dae8fc;strokeColor=#6c8ebf;" vertex="1" parent="gzmTF04NYM72tHjsYCHT-49">
          <mxGeometry x="56.66666666666666" y="462.85714285714295" width="340" height="347.14285714285717" as="geometry" />
        </mxCell>
        <mxCell id="gzmTF04NYM72tHjsYCHT-9" value="" style="endArrow=none;html=1;exitX=1;exitY=0.25;exitDx=0;exitDy=0;entryX=0;entryY=0.25;entryDx=0;entryDy=0;" edge="1" parent="gzmTF04NYM72tHjsYCHT-49" source="gzmTF04NYM72tHjsYCHT-4" target="gzmTF04NYM72tHjsYCHT-4">
          <mxGeometry width="50" height="50" relative="1" as="geometry">
            <mxPoint x="849.9999999999999" y="954.6428571428571" as="sourcePoint" />
            <mxPoint x="651.6666666666667" y="752.1428571428571" as="targetPoint" />
          </mxGeometry>
        </mxCell>
        <mxCell id="gzmTF04NYM72tHjsYCHT-5" value="" style="rounded=0;whiteSpace=wrap;html=1;fillColor=#ffe6cc;strokeColor=#d79b00;" vertex="1" parent="gzmTF04NYM72tHjsYCHT-49">
          <mxGeometry x="509.99999999999994" width="340" height="347.14285714285717" as="geometry" />
        </mxCell>
        <mxCell id="gzmTF04NYM72tHjsYCHT-11" value="" style="endArrow=none;html=1;exitX=0.25;exitY=1;exitDx=0;exitDy=0;entryX=0.25;entryY=0;entryDx=0;entryDy=0;" edge="1" parent="gzmTF04NYM72tHjsYCHT-49" source="gzmTF04NYM72tHjsYCHT-5" target="gzmTF04NYM72tHjsYCHT-5">
          <mxGeometry width="50" height="50" relative="1" as="geometry">
            <mxPoint x="481.6666666666666" y="144.64285714285714" as="sourcePoint" />
            <mxPoint x="623.3333333333333" as="targetPoint" />
          </mxGeometry>
        </mxCell>
        <mxCell id="gzmTF04NYM72tHjsYCHT-12" value="" style="endArrow=none;html=1;exitX=0.25;exitY=1;exitDx=0;exitDy=0;entryX=0.25;entryY=0;entryDx=0;entryDy=0;" edge="1" parent="gzmTF04NYM72tHjsYCHT-49">
          <mxGeometry width="50" height="50" relative="1" as="geometry">
            <mxPoint x="708.3333333333333" y="347.14285714285717" as="sourcePoint" />
            <mxPoint x="708.3333333333333" as="targetPoint" />
          </mxGeometry>
        </mxCell>
        <mxCell id="gzmTF04NYM72tHjsYCHT-16" value="" style="rounded=0;whiteSpace=wrap;html=1;fillColor=#f5f5f5;strokeColor=#666666;fontColor=#333333;" vertex="1" parent="gzmTF04NYM72tHjsYCHT-49">
          <mxGeometry x="595" y="549.6428571428571" width="113.33333333333331" height="115.71428571428574" as="geometry" />
        </mxCell>
        <mxCell id="gzmTF04NYM72tHjsYCHT-19" style="edgeStyle=orthogonalEdgeStyle;rounded=0;orthogonalLoop=1;jettySize=auto;html=1;exitX=1;exitY=0.25;exitDx=0;exitDy=0;entryX=0;entryY=0;entryDx=0;entryDy=0;dashed=1;endArrow=none;endFill=0;" edge="1" parent="gzmTF04NYM72tHjsYCHT-49" source="gzmTF04NYM72tHjsYCHT-4" target="gzmTF04NYM72tHjsYCHT-16">
          <mxGeometry relative="1" as="geometry">
            <Array as="points">
              <mxPoint x="566.6666666666666" y="549.6428571428571" />
              <mxPoint x="566.6666666666666" y="549.6428571428571" />
            </Array>
          </mxGeometry>
        </mxCell>
        <mxCell id="gzmTF04NYM72tHjsYCHT-21" value="" style="endArrow=none;html=1;" edge="1" parent="gzmTF04NYM72tHjsYCHT-49">
          <mxGeometry width="50" height="50" relative="1" as="geometry">
            <mxPoint x="85" y="665.357142857143" as="sourcePoint" />
            <mxPoint x="85" y="549.6428571428571" as="targetPoint" />
            <Array as="points">
              <mxPoint x="85" y="607.5" />
            </Array>
          </mxGeometry>
        </mxCell>
        <mxCell id="gzmTF04NYM72tHjsYCHT-22" value="" style="endArrow=none;html=1;" edge="1" parent="gzmTF04NYM72tHjsYCHT-49">
          <mxGeometry width="50" height="50" relative="1" as="geometry">
            <mxPoint x="56.66666666666666" y="578.5714285714286" as="sourcePoint" />
            <mxPoint x="85" y="578.5714285714286" as="targetPoint" />
            <Array as="points">
              <mxPoint x="85" y="578.5714285714286" />
              <mxPoint x="400" y="579" />
            </Array>
          </mxGeometry>
        </mxCell>
        <mxCell id="gzmTF04NYM72tHjsYCHT-23" value="" style="endArrow=none;html=1;strokeWidth=1;entryX=1;entryY=0.414;entryDx=0;entryDy=0;entryPerimeter=0;" edge="1" parent="gzmTF04NYM72tHjsYCHT-49" target="gzmTF04NYM72tHjsYCHT-4">
          <mxGeometry width="50" height="50" relative="1" as="geometry">
            <mxPoint x="56.66666666666666" y="607.5" as="sourcePoint" />
            <mxPoint x="85" y="607.5" as="targetPoint" />
          </mxGeometry>
        </mxCell>
        <mxCell id="gzmTF04NYM72tHjsYCHT-24" value="" style="endArrow=none;html=1;entryX=1;entryY=0.5;entryDx=0;entryDy=0;" edge="1" parent="gzmTF04NYM72tHjsYCHT-49" target="gzmTF04NYM72tHjsYCHT-4">
          <mxGeometry width="50" height="50" relative="1" as="geometry">
            <mxPoint x="56.66666666666666" y="636.4285714285716" as="sourcePoint" />
            <mxPoint x="85" y="636.4285714285716" as="targetPoint" />
          </mxGeometry>
        </mxCell>
        <mxCell id="gzmTF04NYM72tHjsYCHT-25" value="&lt;font style=&quot;font-size: 20px;&quot;&gt;16&lt;/font&gt;" style="text;html=1;strokeColor=none;fillColor=none;align=center;verticalAlign=middle;whiteSpace=wrap;rounded=0;fontSize=20;" vertex="1" parent="gzmTF04NYM72tHjsYCHT-49">
          <mxGeometry x="56.66666666666666" y="526.5057857142858" width="28.33333333333333" as="geometry" />
        </mxCell>
        <mxCell id="gzmTF04NYM72tHjsYCHT-27" value="&lt;font style=&quot;font-size: 20px;&quot;&gt;64&lt;/font&gt;" style="text;html=1;strokeColor=none;fillColor=none;align=center;verticalAlign=middle;whiteSpace=wrap;rounded=0;fontSize=20;" vertex="1" parent="gzmTF04NYM72tHjsYCHT-49">
          <mxGeometry y="607.5" width="28.33333333333333" as="geometry" />
        </mxCell>
        <mxCell id="gzmTF04NYM72tHjsYCHT-29" value="" style="group" vertex="1" connectable="0" parent="gzmTF04NYM72tHjsYCHT-49">
          <mxGeometry x="56.66666666666666" y="665.357142857143" width="340" as="geometry" />
        </mxCell>
        <mxCell id="gzmTF04NYM72tHjsYCHT-30" value="" style="group" vertex="1" connectable="0" parent="gzmTF04NYM72tHjsYCHT-29">
          <mxGeometry width="340" as="geometry" />
        </mxCell>
        <mxCell id="gzmTF04NYM72tHjsYCHT-10" value="" style="endArrow=none;html=1;exitX=1;exitY=0.25;exitDx=0;exitDy=0;entryX=0;entryY=0.25;entryDx=0;entryDy=0;" edge="1" parent="gzmTF04NYM72tHjsYCHT-30">
          <mxGeometry width="50" height="50" relative="1" as="geometry">
            <mxPoint x="340" as="sourcePoint" />
            <mxPoint as="targetPoint" />
          </mxGeometry>
        </mxCell>
        <mxCell id="gzmTF04NYM72tHjsYCHT-20" style="edgeStyle=orthogonalEdgeStyle;rounded=0;orthogonalLoop=1;jettySize=auto;html=1;exitX=1;exitY=0.5;exitDx=0;exitDy=0;entryX=0;entryY=1;entryDx=0;entryDy=0;dashed=1;endArrow=none;endFill=0;" edge="1" parent="gzmTF04NYM72tHjsYCHT-49" source="gzmTF04NYM72tHjsYCHT-4" target="gzmTF04NYM72tHjsYCHT-16">
          <mxGeometry relative="1" as="geometry">
            <Array as="points">
              <mxPoint x="396.6666666666666" y="665.357142857143" />
              <mxPoint x="595" y="665.357142857143" />
            </Array>
          </mxGeometry>
        </mxCell>
        <mxCell id="gzmTF04NYM72tHjsYCHT-32" value="" style="endArrow=none;html=1;strokeWidth=1;fontSize=2;entryX=1;entryY=0.25;entryDx=0;entryDy=0;exitX=0;exitY=0.25;exitDx=0;exitDy=0;" edge="1" parent="gzmTF04NYM72tHjsYCHT-49" source="gzmTF04NYM72tHjsYCHT-16" target="gzmTF04NYM72tHjsYCHT-16">
          <mxGeometry width="50" height="50" relative="1" as="geometry">
            <mxPoint x="595" y="593.0357142857143" as="sourcePoint" />
            <mxPoint x="736.6666666666669" y="448.3928571428571" as="targetPoint" />
          </mxGeometry>
        </mxCell>
        <mxCell id="gzmTF04NYM72tHjsYCHT-33" value="" style="endArrow=none;html=1;strokeWidth=1;fontSize=2;entryX=1;entryY=0.5;entryDx=0;entryDy=0;" edge="1" parent="gzmTF04NYM72tHjsYCHT-49" target="gzmTF04NYM72tHjsYCHT-16">
          <mxGeometry width="50" height="50" relative="1" as="geometry">
            <mxPoint x="595" y="607.5" as="sourcePoint" />
            <mxPoint x="736.6666666666669" y="462.85714285714295" as="targetPoint" />
          </mxGeometry>
        </mxCell>
        <mxCell id="gzmTF04NYM72tHjsYCHT-34" value="" style="endArrow=none;html=1;strokeWidth=1;fontSize=2;entryX=1;entryY=0.25;entryDx=0;entryDy=0;exitX=0;exitY=0.25;exitDx=0;exitDy=0;" edge="1" parent="gzmTF04NYM72tHjsYCHT-49">
          <mxGeometry width="50" height="50" relative="1" as="geometry">
            <mxPoint x="595" y="635.7342857142858" as="sourcePoint" />
            <mxPoint x="708.3333333333333" y="635.7342857142858" as="targetPoint" />
          </mxGeometry>
        </mxCell>
        <mxCell id="gzmTF04NYM72tHjsYCHT-35" value="" style="endArrow=none;html=1;fontSize=2;strokeWidth=1;exitX=0.25;exitY=1;exitDx=0;exitDy=0;" edge="1" parent="gzmTF04NYM72tHjsYCHT-49" source="gzmTF04NYM72tHjsYCHT-16">
          <mxGeometry width="50" height="50" relative="1" as="geometry">
            <mxPoint x="481.6666666666666" y="694.2857142857143" as="sourcePoint" />
            <mxPoint x="623.3333333333333" y="549.6428571428571" as="targetPoint" />
          </mxGeometry>
        </mxCell>
        <mxCell id="gzmTF04NYM72tHjsYCHT-36" value="" style="endArrow=none;html=1;fontSize=2;strokeWidth=1;exitX=0.5;exitY=1;exitDx=0;exitDy=0;" edge="1" parent="gzmTF04NYM72tHjsYCHT-49" source="gzmTF04NYM72tHjsYCHT-16">
          <mxGeometry width="50" height="50" relative="1" as="geometry">
            <mxPoint x="650.9866666666666" y="665.357142857143" as="sourcePoint" />
            <mxPoint x="650.9866666666666" y="549.6428571428571" as="targetPoint" />
          </mxGeometry>
        </mxCell>
        <mxCell id="gzmTF04NYM72tHjsYCHT-37" value="" style="endArrow=none;html=1;fontSize=2;strokeWidth=1;exitX=0.75;exitY=1;exitDx=0;exitDy=0;" edge="1" parent="gzmTF04NYM72tHjsYCHT-49" source="gzmTF04NYM72tHjsYCHT-16">
          <mxGeometry width="50" height="50" relative="1" as="geometry">
            <mxPoint x="679.32" y="665.357142857143" as="sourcePoint" />
            <mxPoint x="679.32" y="549.6428571428571" as="targetPoint" />
          </mxGeometry>
        </mxCell>
        <mxCell id="gzmTF04NYM72tHjsYCHT-38" value="&lt;font style=&quot;font-size: 30px&quot;&gt;A&lt;/font&gt;" style="text;html=1;strokeColor=none;fillColor=none;align=center;verticalAlign=middle;whiteSpace=wrap;rounded=0;fontSize=2;" vertex="1" parent="gzmTF04NYM72tHjsYCHT-49">
          <mxGeometry x="170" y="752.1428571428571" width="113.33333333333331" height="57.85714285714287" as="geometry" />
        </mxCell>
        <mxCell id="gzmTF04NYM72tHjsYCHT-41" value="" style="endArrow=none;html=1;fontSize=2;strokeWidth=1;" edge="1" parent="gzmTF04NYM72tHjsYCHT-49">
          <mxGeometry width="50" height="50" relative="1" as="geometry">
            <mxPoint x="28.33333333333333" y="578.5714285714286" as="sourcePoint" />
            <mxPoint x="56.66666666666666" y="549.6428571428571" as="targetPoint" />
          </mxGeometry>
        </mxCell>
        <mxCell id="gzmTF04NYM72tHjsYCHT-42" value="" style="endArrow=none;html=1;fontSize=2;strokeWidth=1;" edge="1" parent="gzmTF04NYM72tHjsYCHT-49">
          <mxGeometry width="50" height="50" relative="1" as="geometry">
            <mxPoint x="28.33333333333333" y="636.4285714285716" as="sourcePoint" />
            <mxPoint x="56.66666666666666" y="665.357142857143" as="targetPoint" />
          </mxGeometry>
        </mxCell>
        <mxCell id="gzmTF04NYM72tHjsYCHT-44" value="" style="endArrow=none;html=1;fontSize=2;strokeWidth=1;" edge="1" parent="gzmTF04NYM72tHjsYCHT-49">
          <mxGeometry width="50" height="50" relative="1" as="geometry">
            <mxPoint x="595" y="28.928571428571434" as="sourcePoint" />
            <mxPoint x="708.3333333333333" y="28.928571428571434" as="targetPoint" />
          </mxGeometry>
        </mxCell>
        <mxCell id="gzmTF04NYM72tHjsYCHT-45" value="" style="endArrow=none;html=1;fontSize=2;strokeWidth=1;exitX=0.337;exitY=1.004;exitDx=0;exitDy=0;exitPerimeter=0;" edge="1" parent="gzmTF04NYM72tHjsYCHT-49" source="gzmTF04NYM72tHjsYCHT-5">
          <mxGeometry width="50" height="50" relative="1" as="geometry">
            <mxPoint x="623.3333333333334" y="324" as="sourcePoint" />
            <mxPoint x="623.3333333333333" as="targetPoint" />
          </mxGeometry>
        </mxCell>
        <mxCell id="gzmTF04NYM72tHjsYCHT-46" value="" style="endArrow=none;html=1;fontSize=2;strokeWidth=1;exitX=0.419;exitY=0.996;exitDx=0;exitDy=0;exitPerimeter=0;" edge="1" parent="gzmTF04NYM72tHjsYCHT-49" source="gzmTF04NYM72tHjsYCHT-5">
          <mxGeometry width="50" height="50" relative="1" as="geometry">
            <mxPoint x="651.6666666666667" y="350.32500000000005" as="sourcePoint" />
            <mxPoint x="651.4399999999999" as="targetPoint" />
          </mxGeometry>
        </mxCell>
        <mxCell id="gzmTF04NYM72tHjsYCHT-47" value="" style="endArrow=none;html=1;fontSize=2;strokeWidth=1;exitX=0.5;exitY=1;exitDx=0;exitDy=0;" edge="1" parent="gzmTF04NYM72tHjsYCHT-49" source="gzmTF04NYM72tHjsYCHT-5">
          <mxGeometry width="50" height="50" relative="1" as="geometry">
            <mxPoint x="679.7733333333335" y="28.928571428571434" as="sourcePoint" />
            <mxPoint x="679.7733333333335" as="targetPoint" />
          </mxGeometry>
        </mxCell>
        <mxCell id="gzmTF04NYM72tHjsYCHT-17" style="edgeStyle=orthogonalEdgeStyle;rounded=0;orthogonalLoop=1;jettySize=auto;html=1;exitX=0.25;exitY=1;exitDx=0;exitDy=0;entryX=0;entryY=0;entryDx=0;entryDy=0;dashed=1;endArrow=none;endFill=0;" edge="1" parent="gzmTF04NYM72tHjsYCHT-49" source="gzmTF04NYM72tHjsYCHT-5" target="gzmTF04NYM72tHjsYCHT-16">
          <mxGeometry relative="1" as="geometry" />
        </mxCell>
        <mxCell id="gzmTF04NYM72tHjsYCHT-18" style="edgeStyle=orthogonalEdgeStyle;rounded=0;orthogonalLoop=1;jettySize=auto;html=1;exitX=0.5;exitY=1;exitDx=0;exitDy=0;entryX=1;entryY=0;entryDx=0;entryDy=0;dashed=1;endArrow=none;endFill=0;" edge="1" parent="gzmTF04NYM72tHjsYCHT-49" source="gzmTF04NYM72tHjsYCHT-5" target="gzmTF04NYM72tHjsYCHT-16">
          <mxGeometry relative="1" as="geometry">
            <Array as="points">
              <mxPoint x="708.3333333333333" y="347.14285714285717" />
            </Array>
          </mxGeometry>
        </mxCell>
        <mxCell id="gzmTF04NYM72tHjsYCHT-57" value="" style="ellipse;whiteSpace=wrap;html=1;aspect=fixed;fontSize=2;fillColor=#ffff88;strokeColor=#36393d;" vertex="1" parent="gzmTF04NYM72tHjsYCHT-49">
          <mxGeometry x="56.67" y="580" width="10" height="10" as="geometry" />
        </mxCell>
        <mxCell id="gzmTF04NYM72tHjsYCHT-58" value="" style="ellipse;whiteSpace=wrap;html=1;aspect=fixed;fontSize=2;fillColor=#ffff88;strokeColor=#36393d;" vertex="1" parent="gzmTF04NYM72tHjsYCHT-49">
          <mxGeometry x="56.67" y="607.5" width="10" height="10" as="geometry" />
        </mxCell>
        <mxCell id="gzmTF04NYM72tHjsYCHT-59" value="" style="ellipse;whiteSpace=wrap;html=1;aspect=fixed;fontSize=2;fillColor=#ffff88;strokeColor=#36393d;" vertex="1" parent="gzmTF04NYM72tHjsYCHT-49">
          <mxGeometry x="56.67" y="640" width="10" height="10" as="geometry" />
        </mxCell>
        <mxCell id="gzmTF04NYM72tHjsYCHT-60" value="" style="ellipse;whiteSpace=wrap;html=1;aspect=fixed;fontSize=2;fillColor=#ffff88;strokeColor=#36393d;" vertex="1" parent="gzmTF04NYM72tHjsYCHT-49">
          <mxGeometry x="56.67" y="549.64" width="10" height="10" as="geometry" />
        </mxCell>
        <mxCell id="gzmTF04NYM72tHjsYCHT-61" value="" style="ellipse;whiteSpace=wrap;html=1;aspect=fixed;fontSize=2;fillColor=#ffff88;strokeColor=#36393d;" vertex="1" parent="gzmTF04NYM72tHjsYCHT-49">
          <mxGeometry x="595" y="549.64" width="10" height="10" as="geometry" />
        </mxCell>
        <mxCell id="gzmTF04NYM72tHjsYCHT-63" value="" style="ellipse;whiteSpace=wrap;html=1;aspect=fixed;fontSize=2;fillColor=#ffff88;strokeColor=#36393d;" vertex="1" parent="gzmTF04NYM72tHjsYCHT-49">
          <mxGeometry x="623.33" y="549.64" width="10" height="10" as="geometry" />
        </mxCell>
        <mxCell id="gzmTF04NYM72tHjsYCHT-64" value="" style="ellipse;whiteSpace=wrap;html=1;aspect=fixed;fontSize=2;fillColor=#ffff88;strokeColor=#36393d;" vertex="1" parent="gzmTF04NYM72tHjsYCHT-49">
          <mxGeometry x="646.67" y="549.64" width="10" height="10" as="geometry" />
        </mxCell>
        <mxCell id="gzmTF04NYM72tHjsYCHT-65" value="" style="ellipse;whiteSpace=wrap;html=1;aspect=fixed;fontSize=2;fillColor=#ffff88;strokeColor=#36393d;" vertex="1" parent="gzmTF04NYM72tHjsYCHT-49">
          <mxGeometry x="675" y="549.64" width="10" height="10" as="geometry" />
        </mxCell>
        <mxCell id="gzmTF04NYM72tHjsYCHT-67" value="" style="ellipse;whiteSpace=wrap;html=1;aspect=fixed;fontSize=2;fillColor=#ffff88;strokeColor=#36393d;" vertex="1" parent="gzmTF04NYM72tHjsYCHT-49">
          <mxGeometry x="595" y="580" width="10" height="10" as="geometry" />
        </mxCell>
        <mxCell id="gzmTF04NYM72tHjsYCHT-68" value="" style="ellipse;whiteSpace=wrap;html=1;aspect=fixed;fontSize=2;fillColor=#ffff88;strokeColor=#36393d;" vertex="1" parent="gzmTF04NYM72tHjsYCHT-49">
          <mxGeometry x="623.33" y="580" width="10" height="10" as="geometry" />
        </mxCell>
        <mxCell id="gzmTF04NYM72tHjsYCHT-69" value="" style="ellipse;whiteSpace=wrap;html=1;aspect=fixed;fontSize=2;fillColor=#ffff88;strokeColor=#36393d;" vertex="1" parent="gzmTF04NYM72tHjsYCHT-49">
          <mxGeometry x="623.33" y="607.5" width="10" height="10" as="geometry" />
        </mxCell>
        <mxCell id="gzmTF04NYM72tHjsYCHT-70" value="" style="ellipse;whiteSpace=wrap;html=1;aspect=fixed;fontSize=2;fillColor=#ffff88;strokeColor=#36393d;" vertex="1" parent="gzmTF04NYM72tHjsYCHT-49">
          <mxGeometry x="623.33" y="631.43" width="10" height="10" as="geometry" />
        </mxCell>
        <mxCell id="gzmTF04NYM72tHjsYCHT-123" value="" style="ellipse;whiteSpace=wrap;html=1;aspect=fixed;fontSize=2;fillColor=#ffff88;strokeColor=#36393d;" vertex="1" parent="gzmTF04NYM72tHjsYCHT-49">
          <mxGeometry x="595" y="607.5" width="10" height="10" as="geometry" />
        </mxCell>
        <mxCell id="gzmTF04NYM72tHjsYCHT-124" value="" style="ellipse;whiteSpace=wrap;html=1;aspect=fixed;fontSize=2;fillColor=#ffff88;strokeColor=#36393d;" vertex="1" parent="gzmTF04NYM72tHjsYCHT-49">
          <mxGeometry x="595" y="631.43" width="10" height="10" as="geometry" />
        </mxCell>
        <mxCell id="gzmTF04NYM72tHjsYCHT-125" value="" style="ellipse;whiteSpace=wrap;html=1;aspect=fixed;fontSize=2;fillColor=#ffff88;strokeColor=#36393d;" vertex="1" parent="gzmTF04NYM72tHjsYCHT-49">
          <mxGeometry x="646.67" y="580" width="10" height="10" as="geometry" />
        </mxCell>
        <mxCell id="gzmTF04NYM72tHjsYCHT-126" value="" style="ellipse;whiteSpace=wrap;html=1;aspect=fixed;fontSize=2;fillColor=#ffff88;strokeColor=#36393d;" vertex="1" parent="gzmTF04NYM72tHjsYCHT-49">
          <mxGeometry x="646.67" y="607.5" width="10" height="10" as="geometry" />
        </mxCell>
        <mxCell id="gzmTF04NYM72tHjsYCHT-127" value="" style="ellipse;whiteSpace=wrap;html=1;aspect=fixed;fontSize=2;fillColor=#ffff88;strokeColor=#36393d;" vertex="1" parent="gzmTF04NYM72tHjsYCHT-49">
          <mxGeometry x="646.67" y="631.43" width="10" height="10" as="geometry" />
        </mxCell>
        <mxCell id="gzmTF04NYM72tHjsYCHT-128" value="" style="ellipse;whiteSpace=wrap;html=1;aspect=fixed;fontSize=2;fillColor=#ffff88;strokeColor=#36393d;" vertex="1" parent="gzmTF04NYM72tHjsYCHT-49">
          <mxGeometry x="675" y="580" width="10" height="10" as="geometry" />
        </mxCell>
        <mxCell id="gzmTF04NYM72tHjsYCHT-129" value="" style="ellipse;whiteSpace=wrap;html=1;aspect=fixed;fontSize=2;fillColor=#ffff88;strokeColor=#36393d;" vertex="1" parent="gzmTF04NYM72tHjsYCHT-49">
          <mxGeometry x="675" y="607.5" width="10" height="10" as="geometry" />
        </mxCell>
        <mxCell id="gzmTF04NYM72tHjsYCHT-130" value="" style="ellipse;whiteSpace=wrap;html=1;aspect=fixed;fontSize=2;fillColor=#ffff88;strokeColor=#36393d;" vertex="1" parent="gzmTF04NYM72tHjsYCHT-49">
          <mxGeometry x="675" y="631.43" width="10" height="10" as="geometry" />
        </mxCell>
        <mxCell id="gzmTF04NYM72tHjsYCHT-131" value="" style="ellipse;whiteSpace=wrap;html=1;aspect=fixed;fontSize=2;fillColor=#ffff88;strokeColor=#36393d;" vertex="1" parent="gzmTF04NYM72tHjsYCHT-49">
          <mxGeometry x="595" width="10" height="10" as="geometry" />
        </mxCell>
        <mxCell id="gzmTF04NYM72tHjsYCHT-132" value="" style="ellipse;whiteSpace=wrap;html=1;aspect=fixed;fontSize=2;fillColor=#ffff88;strokeColor=#36393d;" vertex="1" parent="gzmTF04NYM72tHjsYCHT-49">
          <mxGeometry x="623.33" width="10" height="10" as="geometry" />
        </mxCell>
        <mxCell id="gzmTF04NYM72tHjsYCHT-133" value="" style="ellipse;whiteSpace=wrap;html=1;aspect=fixed;fontSize=2;fillColor=#ffff88;strokeColor=#36393d;" vertex="1" parent="gzmTF04NYM72tHjsYCHT-49">
          <mxGeometry x="646.67" width="10" height="10" as="geometry" />
        </mxCell>
        <mxCell id="gzmTF04NYM72tHjsYCHT-135" value="&lt;span style=&quot;font-size: 30px&quot;&gt;B&lt;/span&gt;" style="text;html=1;strokeColor=none;fillColor=none;align=center;verticalAlign=middle;whiteSpace=wrap;rounded=0;fontSize=2;" vertex="1" parent="gzmTF04NYM72tHjsYCHT-49">
          <mxGeometry x="623.33" y="752.1428571428571" width="113.33333333333331" height="57.85714285714287" as="geometry" />
        </mxCell>
        <mxCell id="gzmTF04NYM72tHjsYCHT-136" value="&lt;span style=&quot;font-size: 30px&quot;&gt;C&lt;/span&gt;" style="text;html=1;strokeColor=none;fillColor=none;align=center;verticalAlign=middle;whiteSpace=wrap;rounded=0;fontSize=2;" vertex="1" parent="gzmTF04NYM72tHjsYCHT-49">
          <mxGeometry x="736.67" y="144.6428571428571" width="113.33333333333331" height="57.85714285714287" as="geometry" />
        </mxCell>
        <mxCell id="gzmTF04NYM72tHjsYCHT-134" value="" style="ellipse;whiteSpace=wrap;html=1;aspect=fixed;fontSize=2;fillColor=#ffff88;strokeColor=#36393d;" vertex="1" parent="1">
          <mxGeometry x="680" y="60" width="10" height="10" as="geometry" />
        </mxCell>
      </root>
    </mxGraphModel>
  </diagram>
</mxfile>
